<?xml version="1.0" standalone="no"?>
<!DOCTYPE svg PUBLIC "-//W3C//DTD SVG 1.1//EN"
"http://www.w3.org/Graphics/SVG/1.1/DTD/svg11.dtd">
<svg width="300.287" height="204.287" viewBox="0 0 6255.98 4255.98" version="1.1"
xmlns="http://www.w3.org/2000/svg"
xmlns:xlink="http://www.w3.org/1999/xlink">
<polyline points="31.4961,4127.99 31.4961,127.992 32.8981,112.226 34.1021,106.17 38.8421,91.0661 46.1701,77.0361 49.6001,71.9021 59.7601,59.7601 74.3821,47.7621 88.2721,40.1641 93.9761,37.8001 106.17,34.1021 112.224,32.9001 127.992,31.4961 6127.99,31.4961 6143.76,32.9001 6149.81,34.1021 6162.01,37.8001 6167.71,40.1641 6178.95,46.1701 6184.08,49.6001 6196.22,59.7601 6208.22,74.3821 6215.82,88.2721 6218.18,93.9761 6221.88,106.17 6223.09,112.226 6224.49,127.992 6224.49,4127.99 6223.09,4143.76 6221.88,4149.81 6218.18,4162.01 6215.82,4167.71 6209.81,4178.95 6206.38,4184.08 6196.22,4196.22 6184.08,4206.38 6178.95,4209.81 6164.92,4217.14 6149.81,4221.88 6143.76,4223.09 6127.99,4224.49 127.992,4224.49 112.224,4223.09 106.17,4221.88 93.9761,4218.18 88.2721,4215.82 74.3821,4208.22 62.0501,4198.3 57.6841,4193.93 47.7601,4181.6 40.1641,4167.71 37.8001,4162.01 34.1021,4149.81 32.8981,4143.76 31.4961,4127.99" style="stroke:rgb(103,198,105);stroke-width:62.992126;fill:none;stroke-opacity:0.5;stroke-linecap:round;stroke-linejoin:round;;fill:none"/>
<polyline points="31.4961,4127.99 31.4961,127.992 32.8981,112.226 34.1021,106.17 38.8421,91.0661 46.1701,77.0361 49.6001,71.9021 59.7601,59.7601 74.3821,47.7621 88.2721,40.1641 93.9761,37.8001 106.17,34.1021 112.224,32.9001 127.992,31.4961 6127.99,31.4961 6143.76,32.9001 6149.81,34.1021 6162.01,37.8001 6167.71,40.1641 6178.95,46.1701 6184.08,49.6001 6196.22,59.7601 6208.22,74.3821 6215.82,88.2721 6218.18,93.9761 6221.88,106.17 6223.09,112.226 6224.49,127.992 6224.49,4127.99 6223.09,4143.76 6221.88,4149.81 6218.18,4162.01 6215.82,4167.71 6209.81,4178.95 6206.38,4184.08 6196.22,4196.22 6184.08,4206.38 6178.95,4209.81 6164.92,4217.14 6149.81,4221.88 6143.76,4223.09 6127.99,4224.49 127.992,4224.49 112.224,4223.09 106.17,4221.88 93.9761,4218.18 88.2721,4215.82 74.3821,4208.22 62.0501,4198.3 57.6841,4193.93 47.7601,4181.6 40.1641,4167.71 37.8001,4162.01 34.1021,4149.81 32.8981,4143.76 31.4961,4127.99" style="stroke:rgb(0,0,0);stroke-width:1px;fill:none;stroke-opacity:1;stroke-linecap:round;stroke-linejoin:round;;fill:none"/>
<polyline points="1386.49,3219.13 1386.49,2516.68 1387.02,2510.97 1388.57,2505.45 1391.09,2500.3 1394.51,2495.69 1398.7,2491.78 1403.53,2488.7 1408.85,2486.54 1468.95,2468.31 1532.64,2434.27 1588.45,2388.46 1634.26,2332.64 1668.3,2268.96 1686.54,2208.85 1688.69,2203.54 1691.78,2198.7 1695.69,2194.51 1700.29,2191.09 1705.44,2188.57 1710.97,2187.02 1716.68,2186.5 2419.13,2186.5 2424.93,2187.04 2430.54,2188.64 2435.76,2191.25 2440.41,2194.77 2444.32,2199.09 2447.37,2204.06 2449.46,2209.51 2450.5,2215.25 2450.47,2221.08 2438.2,2345.68 2436.99,2351.74 2373.36,2561 2270.38,2753.97 2266.95,2759.1 2128.08,2928.08 1959.1,3066.96 1953.97,3070.39 1761,3173.36 1551.73,3237 1545.68,3238.2 1421.08,3250.47 1415.25,3250.51 1409.51,3249.46 1404.06,3247.38 1399.09,3244.32 1394.77,3240.41 1391.24,3235.76 1388.64,3230.54 1387.03,3224.94 1386.49,3219.13" style="stroke:rgb(103,198,105);stroke-width:62.992126;fill:none;stroke-opacity:0.5;stroke-linecap:round;stroke-linejoin:round;;fill:none"/>
<polyline points="1386.49,3219.13 1386.49,2516.68 1387.02,2510.97 1388.57,2505.45 1391.09,2500.3 1394.51,2495.69 1398.7,2491.78 1403.53,2488.7 1408.85,2486.54 1468.95,2468.31 1532.64,2434.27 1588.45,2388.46 1634.26,2332.64 1668.3,2268.96 1686.54,2208.85 1688.69,2203.54 1691.78,2198.7 1695.69,2194.51 1700.29,2191.09 1705.44,2188.57 1710.97,2187.02 1716.68,2186.5 2419.13,2186.5 2424.93,2187.04 2430.54,2188.64 2435.76,2191.25 2440.41,2194.77 2444.32,2199.09 2447.37,2204.06 2449.46,2209.51 2450.5,2215.25 2450.47,2221.08 2438.2,2345.68 2436.99,2351.74 2373.36,2561 2270.38,2753.97 2266.95,2759.1 2128.08,2928.08 1959.1,3066.96 1953.97,3070.39 1761,3173.36 1551.73,3237 1545.68,3238.2 1421.08,3250.47 1415.25,3250.51 1409.51,3249.46 1404.06,3247.38 1399.09,3244.32 1394.77,3240.41 1391.24,3235.76 1388.64,3230.54 1387.03,3224.94 1386.49,3219.13" style="stroke:rgb(0,0,0);stroke-width:1px;fill:none;stroke-opacity:1;stroke-linecap:round;stroke-linejoin:round;;fill:none"/>
<polyline points="224.488,2189.55 225.44,2188.64 231.048,2187.04 236.856,2186.5 939.306,2186.5 945.016,2187.02 950.538,2188.57 955.688,2191.09 960.294,2194.51 964.204,2198.7 967.288,2203.54 969.446,2208.85 987.678,2268.96 1021.72,2332.64 1067.53,2388.46 1123.35,2434.27 1187.03,2468.31 1247.13,2486.54 1252.45,2488.7 1257.28,2491.78 1261.48,2495.69 1264.89,2500.3 1267.42,2505.45 1268.97,2510.97 1269.49,2516.68 1269.49,3219.13 1268.95,3224.94 1267.35,3230.54 1264.74,3235.76 1261.21,3240.41 1256.89,3244.32 1251.92,3247.38 1246.47,3249.46 1240.74,3250.51 1234.9,3250.47 1107.25,3237.75 897.896,3174.4 892.192,3172.04 699.366,3068.8 530.192,2930.16 525.826,2925.79 389.028,2759.1 385.598,2753.97 283.946,2563.79 281.584,2558.09 224.486,2369.86 221.676,2350.92 221.126,2345.35 214.976,2220.15 215.92,2208.65 219.88,2197.14 224.488,2189.55 224.488,2066.44 219.88,2058.85 215.92,2047.34 214.976,2035.84 221.126,1910.64 221.676,1905.07 224.488,1886.12 281.584,1697.9 283.946,1692.19 387.184,1499.37 525.826,1330.19 530.192,1325.83 696.882,1189.03 702.016,1185.6 892.192,1083.95 897.896,1081.59 1107.25,1018.24 1234.9,1005.51 1240.74,1005.48 1246.47,1006.53 1251.92,1008.61 1256.89,1011.66 1261.21,1015.58 1264.74,1020.23 1267.35,1025.44 1268.95,1031.05 1269.49,1036.86 1269.49,1739.31 1268.97,1745.02 1267.42,1750.54 1264.89,1755.69 1261.48,1760.3 1257.28,1764.21 1252.45,1767.29 1247.13,1769.45 1187.03,1787.68 1123.35,1821.72 1067.53,1867.53 1021.72,1923.35 987.678,1987.03 969.446,2047.14 967.288,2052.45 964.204,2057.28 960.294,2061.48 955.688,2064.89 950.538,2067.42 945.016,2068.97 939.306,2069.49 236.856,2069.49 231.048,2068.95 224.86,2067.06 219.88,2058.85 215.92,2047.34 214.976,2035.84 221.126,1910.64 221.676,1905.07 224.488,1886.12 224.488,224.49 6031.49,224.49 6031.49,4031.5 224.488,4031.5 224.486,2369.86" style="stroke:rgb(103,198,105);stroke-width:62.992126;fill:none;stroke-opacity:0.5;stroke-linecap:round;stroke-linejoin:round;;fill:none"/>
<polyline points="224.488,2189.55 225.44,2188.64 231.048,2187.04 236.856,2186.5 939.306,2186.5 945.016,2187.02 950.538,2188.57 955.688,2191.09 960.294,2194.51 964.204,2198.7 967.288,2203.54 969.446,2208.85 987.678,2268.96 1021.72,2332.64 1067.53,2388.46 1123.35,2434.27 1187.03,2468.31 1247.13,2486.54 1252.45,2488.7 1257.28,2491.78 1261.48,2495.69 1264.89,2500.3 1267.42,2505.45 1268.97,2510.97 1269.49,2516.68 1269.49,3219.13 1268.95,3224.94 1267.35,3230.54 1264.74,3235.76 1261.21,3240.41 1256.89,3244.32 1251.92,3247.38 1246.47,3249.46 1240.74,3250.51 1234.9,3250.47 1107.25,3237.75 897.896,3174.4 892.192,3172.04 699.366,3068.8 530.192,2930.16 525.826,2925.79 389.028,2759.1 385.598,2753.97 283.946,2563.79 281.584,2558.09 224.486,2369.86 221.676,2350.92 221.126,2345.35 214.976,2220.15 215.92,2208.65 219.88,2197.14 224.488,2189.55 224.488,2066.44 219.88,2058.85 215.92,2047.34 214.976,2035.84 221.126,1910.64 221.676,1905.07 224.488,1886.12 281.584,1697.9 283.946,1692.19 387.184,1499.37 525.826,1330.19 530.192,1325.83 696.882,1189.03 702.016,1185.6 892.192,1083.95 897.896,1081.59 1107.25,1018.24 1234.9,1005.51 1240.74,1005.48 1246.47,1006.53 1251.92,1008.61 1256.89,1011.66 1261.21,1015.58 1264.74,1020.23 1267.35,1025.44 1268.95,1031.05 1269.49,1036.86 1269.49,1739.31 1268.97,1745.02 1267.42,1750.54 1264.89,1755.69 1261.48,1760.3 1257.28,1764.21 1252.45,1767.29 1247.13,1769.45 1187.03,1787.68 1123.35,1821.72 1067.53,1867.53 1021.72,1923.35 987.678,1987.03 969.446,2047.14 967.288,2052.45 964.204,2057.28 960.294,2061.48 955.688,2064.89 950.538,2067.42 945.016,2068.97 939.306,2069.49 236.856,2069.49 231.048,2068.95 224.86,2067.06 219.88,2058.85 215.92,2047.34 214.976,2035.84 221.126,1910.64 221.676,1905.07 224.488,1886.12 224.488,224.49 6031.49,224.49 6031.49,4031.5 224.488,4031.5 224.486,2369.86" style="stroke:rgb(0,0,0);stroke-width:1px;fill:none;stroke-opacity:1;stroke-linecap:round;stroke-linejoin:round;;fill:none"/>
<polyline points="1386.49,1739.31 1386.49,1036.86 1387.03,1031.05 1388.64,1025.44 1391.24,1020.23 1394.77,1015.58 1399.09,1011.66 1404.06,1008.61 1409.51,1006.53 1415.25,1005.48 1421.08,1005.51 1548.73,1018.24 1761,1082.63 1953.97,1185.6 1959.1,1189.03 2125.79,1325.83 2130.16,1330.19 2266.95,1496.88 2270.38,1502.02 2372.04,1692.19 2374.4,1697.9 2437.75,1907.25 2450.47,2034.91 2450.5,2040.74 2449.46,2046.48 2447.37,2051.93 2444.32,2056.89 2440.41,2061.22 2435.76,2064.74 2430.54,2067.35 2424.93,2068.95 2419.13,2069.49 1716.68,2069.49 1710.97,2068.97 1705.44,2067.42 1700.29,2064.89 1695.69,2061.48 1691.78,2057.28 1688.69,2052.45 1686.54,2047.14 1668.3,1987.03 1634.26,1923.35 1588.45,1867.53 1532.64,1821.72 1468.95,1787.68 1408.85,1769.45 1403.53,1767.29 1398.7,1764.21 1394.51,1760.3 1391.09,1755.69 1388.57,1750.54 1387.02,1745.02 1386.49,1739.31" style="stroke:rgb(103,198,105);stroke-width:62.992126;fill:none;stroke-opacity:0.5;stroke-linecap:round;stroke-linejoin:round;;fill:none"/>
<polyline points="1386.49,1739.31 1386.49,1036.86 1387.03,1031.05 1388.64,1025.44 1391.24,1020.23 1394.77,1015.58 1399.09,1011.66 1404.06,1008.61 1409.51,1006.53 1415.25,1005.48 1421.08,1005.51 1548.73,1018.24 1761,1082.63 1953.97,1185.6 1959.1,1189.03 2125.79,1325.83 2130.16,1330.19 2266.95,1496.88 2270.38,1502.02 2372.04,1692.19 2374.4,1697.9 2437.75,1907.25 2450.47,2034.91 2450.5,2040.74 2449.46,2046.48 2447.37,2051.93 2444.32,2056.89 2440.41,2061.22 2435.76,2064.74 2430.54,2067.35 2424.93,2068.95 2419.13,2069.49 1716.68,2069.49 1710.97,2068.97 1705.44,2067.42 1700.29,2064.89 1695.69,2061.48 1691.78,2057.28 1688.69,2052.45 1686.54,2047.14 1668.3,1987.03 1634.26,1923.35 1588.45,1867.53 1532.64,1821.72 1468.95,1787.68 1408.85,1769.45 1403.53,1767.29 1398.7,1764.21 1394.51,1760.3 1391.09,1755.69 1388.57,1750.54 1387.02,1745.02 1386.49,1739.31" style="stroke:rgb(0,0,0);stroke-width:1px;fill:none;stroke-opacity:1;stroke-linecap:round;stroke-linejoin:round;;fill:none"/>
<polyline points="2997.08,2096.53 2997.27,2090.36 3013.34,1966.19 3014.62,1960.5 3016.93,1955.15 3020.19,1950.31 3024.28,1946.15 3029.07,1942.82 3034.39,1940.43 3040.06,1939.06 3045.88,1938.77 3051.66,1939.55 3736.11,2097.56 3741.55,2099.36 3746.59,2102.11 3751.04,2105.72 3754.75,2110.09 3757.62,2115.06 3759.54,2120.46 3760.45,2126.12 3764.69,2188.79 3783.53,2258.5 3815.61,2323.19 3859.69,2380.38 3914.09,2427.87 3968.55,2459.16 3973.24,2462.46 3977.26,2466.55 3980.47,2471.3 3982.76,2476.56 3984.06,2482.15 3984.33,2487.87 3983.55,2493.56 3825.53,3178 3823.7,3183.54 3820.88,3188.64 3817.17,3193.14 3812.69,3196.87 3807.59,3199.72 3802.06,3201.58 3796.29,3202.38 3790.46,3202.11 3784.79,3200.76 3663.26,3159.65 3473.53,3050.83 3468.5,3047.25 3303.84,2903.27 3170.19,2730.13 3166.92,2724.9 3071.12,2531.71 3068.94,2525.93 3012.67,2317.76 3011.65,2311.67 2997.08,2096.53" style="stroke:rgb(103,198,105);stroke-width:62.992126;fill:none;stroke-opacity:0.5;stroke-linecap:round;stroke-linejoin:round;;fill:none"/>
<polyline points="2997.08,2096.53 2997.27,2090.36 3013.34,1966.19 3014.62,1960.5 3016.93,1955.15 3020.19,1950.31 3024.28,1946.15 3029.07,1942.82 3034.39,1940.43 3040.06,1939.06 3045.88,1938.77 3051.66,1939.55 3736.11,2097.56 3741.55,2099.36 3746.59,2102.11 3751.04,2105.72 3754.75,2110.09 3757.62,2115.06 3759.54,2120.46 3760.45,2126.12 3764.69,2188.79 3783.53,2258.5 3815.61,2323.19 3859.69,2380.38 3914.09,2427.87 3968.55,2459.16 3973.24,2462.46 3977.26,2466.55 3980.47,2471.3 3982.76,2476.56 3984.06,2482.15 3984.33,2487.87 3983.55,2493.56 3825.53,3178 3823.7,3183.54 3820.88,3188.64 3817.17,3193.14 3812.69,3196.87 3807.59,3199.72 3802.06,3201.58 3796.29,3202.38 3790.46,3202.11 3784.79,3200.76 3663.26,3159.65 3473.53,3050.83 3468.5,3047.25 3303.84,2903.27 3170.19,2730.13 3166.92,2724.9 3071.12,2531.71 3068.94,2525.93 3012.67,2317.76 3011.65,2311.67 2997.08,2096.53" style="stroke:rgb(0,0,0);stroke-width:1px;fill:none;stroke-opacity:1;stroke-linecap:round;stroke-linejoin:round;;fill:none"/>
<polyline points="3053.6,1796.29 3053.88,1790.46 3055.22,1784.79 3096.34,1663.27 3205.15,1473.53 3208.74,1468.5 3352.71,1303.84 3528.39,1168.43 3724.28,1071.13 3730.05,1068.94 3941.24,1012.01 4159.45,997.082 4165.62,997.27 4289.79,1013.34 4295.48,1014.62 4300.84,1016.93 4305.68,1020.19 4309.83,1024.28 4313.16,1029.07 4315.55,1034.39 4316.92,1040.06 4317.22,1045.88 4316.44,1051.66 4158.42,1736.11 4156.63,1741.56 4153.88,1746.59 4150.26,1751.04 4145.89,1754.76 4140.93,1757.62 4135.52,1759.54 4129.86,1760.45 4067.2,1764.69 3997.49,1783.53 3932.79,1815.61 3875.6,1859.7 3828.11,1914.09 3796.82,1968.55 3793.53,1973.24 3789.43,1977.26 3784.68,1980.47 3779.42,1982.76 3773.84,1984.06 3768.11,1984.33 3762.43,1983.55 3077.98,1825.54 3072.44,1823.7 3067.34,1820.88 3062.84,1817.17 3059.11,1812.69 3056.27,1807.6 3054.41,1802.07 3053.6,1796.29" style="stroke:rgb(103,198,105);stroke-width:62.992126;fill:none;stroke-opacity:0.5;stroke-linecap:round;stroke-linejoin:round;;fill:none"/>
<polyline points="3053.6,1796.29 3053.88,1790.46 3055.22,1784.79 3096.34,1663.27 3205.15,1473.53 3208.74,1468.5 3352.71,1303.84 3528.39,1168.43 3724.28,1071.13 3730.05,1068.94 3941.24,1012.01 4159.45,997.082 4165.62,997.27 4289.79,1013.34 4295.48,1014.62 4300.84,1016.93 4305.68,1020.19 4309.83,1024.28 4313.16,1029.07 4315.55,1034.39 4316.92,1040.06 4317.22,1045.88 4316.44,1051.66 4158.42,1736.11 4156.63,1741.56 4153.88,1746.59 4150.26,1751.04 4145.89,1754.76 4140.93,1757.62 4135.52,1759.54 4129.86,1760.45 4067.2,1764.69 3997.49,1783.53 3932.79,1815.61 3875.6,1859.7 3828.11,1914.09 3796.82,1968.55 3793.53,1973.24 3789.43,1977.26 3784.68,1980.47 3779.42,1982.76 3773.84,1984.06 3768.11,1984.33 3762.43,1983.55 3077.98,1825.54 3072.44,1823.7 3067.34,1820.88 3062.84,1817.17 3059.11,1812.69 3056.27,1807.6 3054.41,1802.07 3053.6,1796.29" style="stroke:rgb(0,0,0);stroke-width:1px;fill:none;stroke-opacity:1;stroke-linecap:round;stroke-linejoin:round;;fill:none"/>
<polyline points="4271.65,1768.11 4271.92,1773.84 4273.22,1779.43 4275.51,1784.68 4278.72,1789.44 4282.74,1793.53 4287.43,1796.83 4341.89,1828.11 4396.29,1875.6 4440.37,1932.8 4472.45,1997.49 4491.29,2067.2 4495.54,2129.86 4496.44,2135.53 4498.36,2140.93 4501.23,2145.9 4504.95,2150.26 4509.4,2153.88 4514.43,2156.63 4519.87,2158.42 5204.32,2316.44 5210.1,2317.22 5215.93,2316.92 5221.6,2315.55 5226.92,2313.16 5231.7,2309.83 5235.8,2305.68 5239.05,2300.84 5241.36,2295.48 5242.64,2289.79 5258.71,2165.63 5258.9,2159.46 5243.97,1941.24 5187.04,1730.05 5184.86,1724.28 5089.06,1531.09 5085.79,1525.85 4954.14,1355.06 4949.91,1350.57 4787.48,1208.74 4782.45,1205.16 4592.72,1096.34 4471.2,1055.22 4465.52,1053.88 4459.69,1053.61 4453.92,1054.41 4448.39,1056.27 4443.3,1059.11 4438.82,1062.85 4435.1,1067.34 4432.28,1072.45 4430.45,1077.98 4272.43,1762.43 4271.65,1768.11" style="stroke:rgb(103,198,105);stroke-width:62.992126;fill:none;stroke-opacity:0.5;stroke-linecap:round;stroke-linejoin:round;;fill:none"/>
<polyline points="4271.65,1768.11 4271.92,1773.84 4273.22,1779.43 4275.51,1784.68 4278.72,1789.44 4282.74,1793.53 4287.43,1796.83 4341.89,1828.11 4396.29,1875.6 4440.37,1932.8 4472.45,1997.49 4491.29,2067.2 4495.54,2129.86 4496.44,2135.53 4498.36,2140.93 4501.23,2145.9 4504.95,2150.26 4509.4,2153.88 4514.43,2156.63 4519.87,2158.42 5204.32,2316.44 5210.1,2317.22 5215.93,2316.92 5221.6,2315.55 5226.92,2313.16 5231.7,2309.83 5235.8,2305.68 5239.05,2300.84 5241.36,2295.48 5242.64,2289.79 5258.71,2165.63 5258.9,2159.46 5243.97,1941.24 5187.04,1730.05 5184.86,1724.28 5089.06,1531.09 5085.79,1525.85 4954.14,1355.06 4949.91,1350.57 4787.48,1208.74 4782.45,1205.16 4592.72,1096.34 4471.2,1055.22 4465.52,1053.88 4459.69,1053.61 4453.92,1054.41 4448.39,1056.27 4443.3,1059.11 4438.82,1062.85 4435.1,1067.34 4432.28,1072.45 4430.45,1077.98 4272.43,1762.43 4271.65,1768.11" style="stroke:rgb(0,0,0);stroke-width:1px;fill:none;stroke-opacity:1;stroke-linecap:round;stroke-linejoin:round;;fill:none"/>
<polyline points="3938.76,3210.1 3939.06,3215.93 3940.43,3221.6 3942.82,3226.92 3946.15,3231.71 3950.3,3235.8 3955.14,3239.06 3960.5,3241.36 3966.19,3242.64 4090.36,3258.72 4096.53,3258.9 4314.74,3243.97 4528.87,3186.09 4724.89,3089.06 4730.13,3085.79 4900.92,2954.15 4905.42,2949.92 5047.24,2787.48 5050.83,2782.45 5159.65,2592.72 5200.76,2471.2 5202.11,2465.52 5202.38,2459.7 5201.57,2453.92 5199.72,2448.39 5196.87,2443.3 5193.14,2438.82 5188.64,2435.1 5183.54,2432.28 5178,2430.45 4493.55,2272.43 4487.87,2271.66 4482.14,2271.92 4476.56,2273.23 4471.3,2275.52 4466.55,2278.72 4462.45,2282.74 4459.16,2287.43 4427.87,2341.9 4380.38,2396.29 4323.19,2440.37 4258.49,2472.45 4188.78,2491.29 4126.12,2495.54 4120.46,2496.44 4115.05,2498.36 4110.09,2501.23 4105.72,2504.95 4102.1,2509.4 4099.35,2514.43 4097.56,2519.88 3939.54,3204.32 3938.76,3210.1" style="stroke:rgb(103,198,105);stroke-width:62.992126;fill:none;stroke-opacity:0.5;stroke-linecap:round;stroke-linejoin:round;;fill:none"/>
<polyline points="3938.76,3210.1 3939.06,3215.93 3940.43,3221.6 3942.82,3226.92 3946.15,3231.71 3950.3,3235.8 3955.14,3239.06 3960.5,3241.36 3966.19,3242.64 4090.36,3258.72 4096.53,3258.9 4314.74,3243.97 4528.87,3186.09 4724.89,3089.06 4730.13,3085.79 4900.92,2954.15 4905.42,2949.92 5047.24,2787.48 5050.83,2782.45 5159.65,2592.72 5200.76,2471.2 5202.11,2465.52 5202.38,2459.7 5201.57,2453.92 5199.72,2448.39 5196.87,2443.3 5193.14,2438.82 5188.64,2435.1 5183.54,2432.28 5178,2430.45 4493.55,2272.43 4487.87,2271.66 4482.14,2271.92 4476.56,2273.23 4471.3,2275.52 4466.55,2278.72 4462.45,2282.74 4459.16,2287.43 4427.87,2341.9 4380.38,2396.29 4323.19,2440.37 4258.49,2472.45 4188.78,2491.29 4126.12,2495.54 4120.46,2496.44 4115.05,2498.36 4110.09,2501.23 4105.72,2504.95 4102.1,2509.4 4099.35,2514.43 4097.56,2519.88 3939.54,3204.32 3938.76,3210.1" style="stroke:rgb(0,0,0);stroke-width:1px;fill:none;stroke-opacity:1;stroke-linecap:round;stroke-linejoin:round;;fill:none"/>
</svg>
